{"title":"Husk-AC3-XviD-DVDRip 2010 TBS","uid":6297117,"size":1567980513,"categoryP":"video","categoryS":"movies","magnet":"?xt=urn:btih:f3fa1943650c6ba81124b0b70522ae57e0565ecf&amp;dn=Husk-AC3-XviD-DVDRip+2010+TBS&amp;tr=udp%3A%2F%2Ftracker.openbittorrent.com%3A80&amp;tr=udp%3A%2F%2Fopen.demonii.com%3A1337&amp;tr=udp%3A%2F%2Ftracker.coppersurfer.tk%3A6969&amp;tr=udp%3A%2F%2Fexodus.desync.com%3A6969","seeders":0,"leechers":0,"uploader":"FatFreddy30","files":-1,"time":1302035046,"description":"A group of friends stranded near a desolate cornfield find shelter in an old farmhouse, though they soon discover the dwelling is the center of a supernatural ritual...\n &lt;a href=&quot;\nhttp://www.imdb.com/title/tt1504403/&quot; rel=&quot;nofollow&quot; target=&quot;_NEW&quot;&gt;\nhttp://www.imdb.com/title/tt1504403/&lt;/a&gt;\n\nSubs: Dutch, English.\n\n\nEen groepje vrienden raakt gestrand op een afgelegen stuk platteland. Al snel wordt hun wagen aangevallen door agressieve kraaien. Ook doen ze de ontdekking dat het maisveld bewaakt wordt door levende vogelverschrikkers, die hun slachtoffers dwingen zich bij hen te voegen...\n &lt;a href=&quot;\nhttp://www.moviemeter.nl/film/65291&quot; rel=&quot;nofollow&quot; target=&quot;_NEW&quot;&gt;\nhttp://www.moviemeter.nl/film/65291&lt;/a&gt;\n\nOndertitels: Engels, Nederlands.\n\nGeneral\nComplete name                    : Husk-AC3-XviD-DVDRip 2010.avi\nFormat                           : AVI\nFormat/Info                      : Audio Video Interleave\nFile size                        : 1.46 GiB\nDuration                         : 1h 22mn\nOverall bit rate                 : 2 525 Kbps\nWriting application              : VirtualDubMod 1.5.4.1 (build 2178/release)\nWriting library                  : VirtualDubMod build 2178/release\nSource                           : Husk R1.NTSC.DVDR-CME\n\nVideo\nID                               : 0\nFormat                           : MPEG-4 Visual\nFormat profile                   : Simple@L3\nFormat settings, BVOP            : No\nFormat settings, QPel            : No\nFormat settings, GMC             : No warppoints\nFormat settings, Matrix          : Default (H.263)\nCodec ID                         : XVID\nCodec ID/Hint                    : XviD\nDuration                         : 1h 22mn\nBit rate                         : 2 068 Kbps\nWidth                            : 720 pixels\nHeight                           : 400 pixels\nDisplay aspect ratio             : 16:9\nFrame rate                       : 23.976 fps\nResolution                       : 8 bits\nColorimetry                      : 4:2:0\nScan type                        : Progressive\nBits/(Pixel*Frame)               : 0.299\nStream size                      : 1.20 GiB (82%)\nWriting library                  : XviD 1.1.2 (UTC 2006-11-01)\n\nAudio\nID                               : 1\nFormat                           : AC-3\nFormat/Info                      : Audio Coding 3\nCodec ID                         : 2000\nDuration                         : 1h 22mn\nBit rate mode                    : Constant\nBit rate                         : 448 Kbps\nChannel(s)                       : 6 channels\nChannel positions                : Front: L C R, Surround: L R, LFE\nSampling rate                    : 48.0 KHz\nStream size                      : 265 MiB (18%)\nAlignment                        : Split accross interleaves\nInterleave, duration             : 42 ms (1.00 video frame)\nInterleave, preload duration     : 500 ms\n\nThanks to Simply ReleaseS Toppers.\n\nEnjoy..","torrent":{"xt":"urn:btih:f3fa1943650c6ba81124b0b70522ae57e0565ecf","amp;dn":"Husk-AC3-XviD-DVDRip+2010+TBS","amp;tr":["udp%3A%2F%2Ftracker.openbittorrent.com%3A80","udp%3A%2F%2Fopen.demonii.com%3A1337","udp%3A%2F%2Ftracker.coppersurfer.tk%3A6969","udp%3A%2F%2Fexodus.desync.com%3A6969"],"infoHash":"f3fa1943650c6ba81124b0b70522ae57e0565ecf","infoHashBuffer":{"type":"Buffer","data":[243,250,25,67,101,12,107,168,17,36,176,183,5,34,174,87,224,86,94,207]},"announce":[],"urlList":[]}}